<?xml version="1.0" encoding="UTF-8"?>
<!DOCTYPE svg PUBLIC "-//W3C//DTD SVG 1.1//EN" "http://www.w3.org/Graphics/SVG/1.1/DTD/svg11.dtd">
<!-- Creator: CorelDRAW -->
<svg xmlns="http://www.w3.org/2000/svg" xml:space="preserve" width="264.79mm" height="214.291mm" version="1.1" style="shape-rendering:geometricPrecision; text-rendering:geometricPrecision; image-rendering:optimizeQuality; fill-rule:evenodd; clip-rule:evenodd"
viewBox="0 0 26474.66 21425.6"
 xmlns:xlink="http://www.w3.org/1999/xlink"
 xmlns:xodm="http://www.corel.com/coreldraw/odm/2003">
 <defs>
  <style type="text/css">
   <![CDATA[
    .fil3 {fill:none;fill-rule:nonzero}
    .fil0 {fill:#1E1E1E;fill-rule:nonzero}
    .fil1 {fill:#4B8C99;fill-rule:nonzero}
    .fil2 {fill:#F2EFEB;fill-rule:nonzero}
   ]]>
  </style>
 </defs>
 <g id="Camada_x0020_1">
  <metadata id="CorelCorpID_0Corel-Layer"/>
  <polygon class="fil0" points="3307.02,14902.77 2748.49,14902.77 2748.49,14416.87 4442.72,14416.87 4442.72,14902.77 3884.18,14902.77 3884.18,17665.42 3307.02,17665.42 "/>
  <path class="fil0" d="M5220.01 16459.6l465.45 0 -228.07 -1394.83 -9.31 0 -228.07 1394.83zm-186.16 1205.84l-558.54 0 619.03 -3248.58 716.79 0 619.06 3248.58 -558.53 0 -102.43 -719.93 -632.99 0 -102.39 719.93z"/>
  <path class="fil0" d="M7342.4 15874.65l204.83 0c311.81,0 428.17,-112.45 428.17,-499.42 0,-386.97 -116.36,-499.42 -428.17,-499.42l-204.83 0 0 998.84zm0 1790.79l-577.12 0 0 -3248.58 809.85 0c646.95,0 977.45,265.46 977.45,958.37 0,521.96 -209.48,733.41 -404.95,818.91l488.73 1471.3 -586.47 0 -409.61 -1345.34c-74.46,9.03 -195.48,13.51 -297.87,13.51l0 1331.83z"/>
  <path class="fil0" d="M9888.39 16018.63l944.84 0 0 1646.78 -279.25 0 -107.04 -242.95c-172.23,197.98 -311.84,287.96 -581.82,287.96 -456.14,0 -772.59,-314.95 -772.59,-832.38l0 -1673.81c0,-458.92 279.24,-832.38 847.05,-832.38 577.16,0 865.75,404.96 865.75,890.88l0 206.98 -549.22 0c0,-485.91 -102.42,-611.9 -330.46,-611.9 -139.65,0 -256.01,80.98 -256.01,355.47l0 1669.25c0,206.98 69.8,341.99 269.94,341.99 232.76,0 316.53,-126.03 316.53,-449.97l0 -314.94 -367.71 0 0 -440.98z"/>
  <polygon class="fil0" points="11419.74,17665.43 11419.74,14416.84 12965.03,14416.84 12965.03,14902.78 11996.89,14902.78 11996.89,15739.68 12741.62,15739.68 12741.62,16225.63 11996.89,16225.63 11996.89,17179.52 13030.15,17179.52 13030.15,17665.43 "/>
  <polygon class="fil0" points="13821.37,14902.77 13262.84,14902.77 13262.84,14416.87 14957.06,14416.87 14957.06,14902.77 14398.52,14902.77 14398.52,17665.42 13821.37,17665.42 "/>
  <polygon class="fil0" points="16665.14,14902.77 16106.6,14902.77 16106.6,14416.87 17800.83,14416.87 17800.83,14902.77 17242.3,14902.77 17242.3,17665.42 16665.14,17665.42 "/>
  <polygon class="fil0" points="18140.6,17665.43 18140.6,14416.84 19685.87,14416.84 19685.87,14902.78 18717.73,14902.78 18717.73,15739.68 19462.46,15739.68 19462.46,16225.63 18717.73,16225.63 18717.73,17179.52 19751.02,17179.52 19751.02,17665.43 "/>
  <path class="fil0" d="M20728.41 16459.6l465.42 0 -228.07 -1394.83 -9.28 0 -228.07 1394.83zm-186.16 1205.84l-558.53 0 619.02 -3248.58 716.8 0 619.02 3248.58 -558.53 0 -102.43 -719.93 -633 0 -102.35 719.93z"/>
  <polygon class="fil0" points="22245.7,17665.43 22245.7,14416.84 22822.82,14416.84 22822.82,17179.52 23730.48,17179.52 23730.48,17665.43 "/>
  <path class="fil1" d="M9810.72 8485.71c0,609.64 0.56,1219.25 -0.92,1828.85 -0.14,55.42 11.82,90.76 67.12,121.48 1100.56,611.48 2199.85,1225.14 3298.46,1839.9 48.01,26.84 82.79,30.41 133.02,2.22 1089.97,-611.51 2180.73,-1221.72 3273.03,-1829.31 68.93,-38.34 89.14,-80.67 89,-154.88 -2.47,-1210.25 -2.43,-2420.54 -0.14,-3630.83 0.14,-68.89 -21.49,-105.64 -83.49,-140.03 -1093.08,-606.4 -2184.94,-1214.88 -3275.79,-1824.98 -54.81,-30.65 -92.21,-22.26 -142.5,5.79 -1097.14,611.37 -2194.91,1221.65 -3294.03,1829.73 -56.51,31.29 -64.58,69.07 -64.48,123.21 1.2,609.61 0.74,1219.21 0.71,1828.85zm-942.93 -0.39c0,-732.21 2.43,-1464.45 -1.8,-2196.63 -1.03,-172.2 71,-284.78 223.76,-369.4 1315.83,-728.76 2630.16,-1460.05 3943.8,-2192.58 143.07,-79.79 276.58,-80.42 419.1,-0.85 1315.9,734.72 2632.35,1468.45 3949.73,2200.69 142.72,79.33 210.72,188.46 210.48,349.44 -2.19,1473.38 -2.01,2946.8 -0.18,4420.19 0.18,153.26 -62.78,261.93 -198.83,337.87 -1323.87,739.27 -2647.42,1478.99 -3970.44,2219.71 -136.4,76.36 -265.18,74.85 -401.92,-1.63 -1320.7,-738.66 -2642.05,-1476.13 -3964.44,-2211.94 -142.89,-79.54 -211.25,-188.35 -210.58,-349.26 2.96,-735.21 1.31,-1470.39 1.31,-2205.6z"/>
  <path class="fil2" d="M11247.59 8349.48c-173.28,0 -336.28,-0.36 -499.27,0.1 -156.15,0.42 -228.7,68.47 -228.88,216.85 -0.49,451.17 1.52,902.33 -1.27,1353.46 -0.63,101.51 40.91,167.68 130.3,217.73 815.17,456.18 1629.99,912.98 2442.97,1372.82 102.6,58.03 189.52,60.14 292.65,1.84 813.02,-459.78 1627.7,-916.79 2442.87,-1373 92.69,-51.89 133.65,-120.7 132.84,-225.5 -3.36,-439.17 -1.42,-878.41 -1.35,-1317.62 0.04,-187.68 -60.42,-246.52 -253.85,-246.59 -156.46,-0.07 -312.9,0 -474.26,0 0,-257.8 -2.19,-502.59 0.84,-747.31 1.84,-148.64 -58.41,-255.16 -193.78,-330.08 -535.96,-296.63 -1070.51,-595.78 -1604.11,-896.43 -134.53,-75.81 -258.72,-70.27 -392.08,5.11 -474.55,268.25 -951.12,533.24 -1428.24,797.22 -364.47,201.62 -365.39,200.1 -365.39,609.11l0 562.28zm-1437.55 136.22c0,-609.61 0.46,-1219.25 -0.74,-1828.85 -0.1,-54.15 7.98,-91.93 64.52,-123.21 1099.07,-608.09 2196.84,-1218.33 3293.99,-1829.73 50.29,-28.05 87.72,-36.4 142.5,-5.75 1090.89,610.06 2182.74,1218.54 3275.79,1824.93 62.01,34.39 83.63,71.15 83.49,140.03 -2.29,1210.29 -2.33,2420.59 0.14,3630.87 0.18,74.22 -20.07,116.54 -88.96,154.84 -1092.3,607.6 -2183.1,1217.8 -3273.04,1829.31 -50.26,28.19 -85.04,24.66 -133.04,-2.22 -1098.62,-614.75 -2197.91,-1228.42 -3298.47,-1839.89 -55.3,-30.73 -67.26,-66.03 -67.12,-121.44 1.48,-609.64 0.92,-1219.25 0.95,-1828.89z"/>
  <path class="fil0" d="M11874.5 8486.98c0,233.07 -2.22,466.19 2.54,699.16 0.67,32.87 26.88,79.26 55.66,95.52 413.49,233.11 828.82,463.29 1246.12,689.96 32.38,17.6 92.14,19.47 123.74,2.22 416.98,-227.33 831.71,-458.54 1245,-692.15 27.23,-15.38 54.03,-57.63 54.25,-87.55 3.38,-469.11 3.35,-938.27 -0.07,-1407.39 -0.22,-29.84 -27.13,-71.85 -54.36,-87.3 -415.43,-235.97 -832.48,-469.29 -1251.14,-699.91 -27.34,-15.06 -78.41,-16.54 -105.21,-1.86 -419.14,229.72 -835.59,463.99 -1254.21,694.61 -50.26,27.73 -64.51,59.54 -63.73,113.4 3.28,227.04 1.37,454.2 1.41,681.28zm-626.47 -137.49l0 -562.31c0,-408.98 0.88,-407.46 365.38,-609.11 477.12,-263.95 953.66,-528.94 1428.24,-797.19 133.36,-75.38 257.56,-80.91 392.09,-5.11 533.59,300.66 1068.11,599.8 1604.1,896.43 135.38,74.92 195.62,181.41 193.79,330.08 -3.04,244.72 -0.85,489.51 -0.85,747.28 161.33,0 317.8,-0.04 474.23,0.03 193.43,0.07 253.92,58.91 253.89,246.59 -0.07,439.21 -2.01,878.45 1.34,1317.63 0.81,104.79 -40.14,173.6 -132.84,225.49 -815.17,456.21 -1629.85,913.19 -2442.87,1372.96 -103.13,58.34 -190.08,56.19 -292.65,-1.83 -812.98,-459.85 -1627.8,-916.61 -2442.97,-1372.83 -89.38,-50.01 -130.93,-116.18 -130.3,-217.69 2.79,-451.13 0.78,-902.29 1.27,-1353.46 0.18,-148.39 72.7,-216.42 228.85,-216.88 162.99,-0.43 326.02,-0.07 499.31,-0.07z"/>
  <path class="fil2" d="M11875.21 8486.98c0,-227.08 1.87,-454.24 -1.41,-681.28 -0.78,-53.86 13.48,-85.68 63.74,-113.4 418.6,-230.61 835.06,-464.88 1254.2,-694.61 26.81,-14.68 77.89,-13.2 105.22,1.86 418.64,230.61 835.73,463.93 1251.17,699.91 27.2,15.45 54.14,57.46 54.35,87.3 3.43,469.12 3.43,938.28 0.04,1407.39 -0.21,29.92 -27.02,72.17 -54.21,87.55 -413.28,233.61 -828.02,464.81 -1245.04,692.15 -31.6,17.25 -91.36,15.38 -123.7,-2.22 -417.33,-226.66 -832.62,-456.85 -1246.13,-689.96 -28.82,-16.27 -55.02,-62.65 -55.69,-95.52 -4.76,-232.96 -2.54,-466.08 -2.54,-699.16z"/>
  <polygon class="fil3" points="-0,21425.6 26474.66,21425.6 26474.66,0 -0,0 "/>
 </g>
</svg>
