<?xml version="1.0" encoding="UTF-8"?>
<!DOCTYPE svg PUBLIC "-//W3C//DTD SVG 1.1//EN" "http://www.w3.org/Graphics/SVG/1.1/DTD/svg11.dtd">
<!-- Creator: CorelDRAW -->
<svg xmlns="http://www.w3.org/2000/svg" xml:space="preserve" width="134.303mm" height="123.506mm" version="1.1" style="shape-rendering:geometricPrecision; text-rendering:geometricPrecision; image-rendering:optimizeQuality; fill-rule:evenodd; clip-rule:evenodd"
viewBox="0 0 1913.91 1760.04"
 xmlns:xlink="http://www.w3.org/1999/xlink"
 xmlns:xodm="http://www.corel.com/coreldraw/odm/2003">
 <defs>
  <style type="text/css">
   <![CDATA[
    .fil3 {fill:none;fill-rule:nonzero}
    .fil2 {fill:#1E1E1E;fill-rule:nonzero}
    .fil0 {fill:#4B8C99;fill-rule:nonzero}
    .fil1 {fill:#F2EFEB;fill-rule:nonzero}
   ]]>
  </style>
 </defs>
 <g id="Camada_x0020_1">
  <metadata id="CorelCorpID_0Corel-Layer"/>
  <g id="_2060362807744">
   <path class="fil0" d="M468.26 879.64c0,86.89 0.08,173.78 -0.13,260.67 -0.02,7.9 1.68,12.94 9.57,17.31 156.86,87.15 313.54,174.62 470.13,262.24 6.84,3.82 11.8,4.33 18.96,0.32 155.35,-87.16 310.82,-174.13 466.5,-260.73 9.82,-5.47 12.7,-11.5 12.68,-22.08 -0.35,-172.5 -0.35,-345 -0.02,-517.5 0.02,-9.82 -3.06,-15.06 -11.9,-19.96 -155.8,-86.43 -311.42,-173.16 -466.9,-260.11 -7.81,-4.37 -13.14,-3.17 -20.31,0.83 -156.38,87.14 -312.84,174.12 -469.5,260.79 -8.05,4.46 -9.2,9.84 -9.19,17.56 0.17,86.89 0.11,173.77 0.1,260.67zm-134.4 -0.06c0,-104.36 0.35,-208.73 -0.26,-313.09 -0.15,-24.54 10.12,-40.59 31.89,-52.65 187.54,-103.87 374.88,-208.1 562.11,-312.51 20.39,-11.37 39.42,-11.46 59.73,-0.12 187.55,104.72 375.19,209.3 562.95,313.66 20.34,11.31 30.03,26.86 30,49.81 -0.31,210 -0.29,420.01 -0.03,630.01 0.03,21.84 -8.95,37.33 -28.34,48.16 -188.69,105.37 -377.34,210.8 -565.9,316.37 -19.44,10.88 -37.8,10.67 -57.29,-0.23 -188.24,-105.28 -376.57,-210.39 -565.05,-315.27 -20.37,-11.34 -30.11,-26.85 -30.01,-49.78 0.42,-104.79 0.19,-209.57 0.19,-314.36z"/>
   <path class="fil1" d="M673.06 860.22c-24.7,0 -47.93,-0.05 -71.16,0.01 -22.26,0.06 -32.6,9.76 -32.62,30.91 -0.07,64.3 0.22,128.61 -0.18,192.91 -0.09,14.47 5.83,23.9 18.57,31.03 116.19,65.02 232.32,130.13 348.2,195.67 14.62,8.27 27.01,8.57 41.71,0.26 115.88,-65.53 231.99,-130.67 348.18,-195.69 13.21,-7.4 19.05,-17.2 18.93,-32.14 -0.48,-62.59 -0.2,-125.2 -0.19,-187.8 0.01,-26.75 -8.61,-35.14 -36.18,-35.15 -22.3,-0.01 -44.6,0 -67.6,0 0,-36.74 -0.31,-71.63 0.12,-106.51 0.26,-21.19 -8.33,-36.37 -27.62,-47.05 -76.39,-42.28 -152.58,-84.92 -228.63,-127.77 -19.17,-10.8 -36.87,-10.02 -55.88,0.73 -67.64,38.23 -135.56,76 -203.57,113.63 -51.95,28.74 -52.08,28.52 -52.08,86.82l0 80.14zm-204.89 19.42c0,-86.89 0.07,-173.78 -0.11,-260.67 -0.01,-7.72 1.14,-13.1 9.2,-17.56 156.65,-86.67 313.12,-173.65 469.49,-260.79 7.17,-4 12.5,-5.19 20.31,-0.82 155.48,86.95 311.1,173.68 466.9,260.11 8.84,4.9 11.92,10.14 11.9,19.96 -0.33,172.5 -0.33,345.01 0.02,517.51 0.03,10.58 -2.86,16.61 -12.68,22.07 -155.69,86.6 -311.16,173.57 -466.51,260.73 -7.16,4.02 -12.12,3.51 -18.96,-0.32 -156.59,-87.62 -313.27,-175.09 -470.13,-262.24 -7.88,-4.38 -9.59,-9.41 -9.57,-17.31 0.21,-86.89 0.13,-173.78 0.14,-260.67z"/>
   <path class="fil2" d="M762.41 879.82c0,33.22 -0.32,66.45 0.36,99.65 0.1,4.69 3.83,11.3 7.93,13.62 58.94,33.23 118.13,66.03 177.61,98.34 4.62,2.51 13.13,2.77 17.64,0.32 59.43,-32.4 118.54,-65.35 177.45,-98.65 3.88,-2.19 7.7,-8.21 7.73,-12.48 0.48,-66.86 0.48,-133.73 -0.01,-200.6 -0.03,-4.25 -3.87,-10.24 -7.75,-12.44 -59.21,-33.63 -118.65,-66.89 -178.32,-99.76 -3.9,-2.15 -11.18,-2.36 -15,-0.27 -59.74,32.74 -119.1,66.13 -178.76,99 -7.16,3.95 -9.19,8.49 -9.08,16.16 0.47,32.36 0.2,64.74 0.2,97.1zm-89.29 -19.6l0 -80.15c0,-58.29 0.13,-58.08 52.08,-86.82 68,-37.62 135.92,-75.39 203.57,-113.62 19.01,-10.74 36.71,-11.53 55.88,-0.73 76.05,42.85 152.24,85.49 228.63,127.77 19.3,10.68 27.88,25.86 27.62,47.05 -0.43,34.88 -0.12,69.77 -0.12,106.51 22.99,0 45.3,-0.01 67.59,0 27.57,0.01 36.19,8.4 36.19,35.15 -0.01,62.6 -0.29,125.2 0.19,187.8 0.12,14.94 -5.72,24.74 -18.93,32.14 -116.19,65.02 -232.3,130.16 -348.18,195.69 -14.7,8.32 -27.09,8.01 -41.71,-0.26 -115.87,-65.54 -232.01,-130.64 -348.2,-195.67 -12.74,-7.13 -18.66,-16.56 -18.57,-31.03 0.4,-64.3 0.11,-128.6 0.18,-192.91 0.03,-21.15 10.36,-30.85 32.62,-30.91 23.23,-0.06 46.47,-0.01 71.17,-0.01z"/>
   <path class="fil1" d="M762.52 879.82c0,-32.37 0.27,-64.74 -0.2,-97.1 -0.11,-7.68 1.92,-12.21 9.08,-16.16 59.66,-32.87 119.02,-66.26 178.76,-99 3.82,-2.09 11.1,-1.88 15,0.27 59.67,32.87 119.12,66.12 178.33,99.76 3.88,2.2 7.72,8.19 7.75,12.44 0.49,66.86 0.49,133.73 0.01,200.6 -0.03,4.26 -3.85,10.29 -7.73,12.48 -58.91,33.3 -118.02,66.25 -177.45,98.65 -4.5,2.46 -13.02,2.19 -17.63,-0.32 -59.48,-32.31 -118.67,-65.11 -177.61,-98.34 -4.11,-2.32 -7.84,-8.93 -7.94,-13.62 -0.68,-33.2 -0.36,-66.43 -0.36,-99.65z"/>
  </g>
  <polygon class="fil3" points="-0,1760.04 1913.91,1760.04 1913.91,0 -0,0 "/>
 </g>
</svg>
